<svg id="Layer_1_1_" enable-background="new 0 0 64 64" height="512" viewBox="0 0 64 64" width="512" xmlns="http://www.w3.org/2000/svg"><path d="m16.2998 41h-9.2998c-.55273 0-1 .44775-1 1 0 1.59619.62109 3.10303 1.75684 4.25098 1.14062 1.12793 2.64746 1.74902 4.24316 1.74902h9c.39551 0 .75293-.23291.91406-.59375l2.08594-4.69385v6.87354l-2.79755 2.79803-8.388-.883c-1.47559-.15332-2.96582.32666-4.07324 1.32324-1.10644.99659-1.74121 2.42237-1.74121 3.91212 0 2.90234 2.36133 5.26367 5.26367 5.26367h8.36621 22.73926 8.37109c2.90039 0 5.25977-2.35938 5.25977-5.25977s-2.35547-5.26025-5.25-5.26025c-.19141 0-.38086.00244-.56445.02539l-8.38434.88226-2.80121-2.80169v-6.87354l2.08594 4.69385c.16113.36084.51855.59375.91406.59375h9c1.5957 0 3.10254-.62109 4.25098-1.75684 1.12793-1.14013 1.74902-2.64697 1.74902-4.24316 0-.55225-.44727-1-1-1h-9.2998l-1.84863-5.06836c-.3999-1.11078-1.02588-2.08929-1.78778-2.93445 6.91284-.03113 12.38715-5.05109 12.61786-5.26526.20312-.18945.31835-.45459.31835-.73193 0-.27783-.11523-.54297-.31836-.73193-.20654-.19165-4.65179-4.25275-10.5611-5.1026 3.59814-4.78461 3.86884-10.81824 3.87848-11.10004.00977-.27734-.0957-.54639-.29199-.74268s-.47559-.3125-.74219-.29248c-.28296.01013-6.33496.28143-11.1236 3.89691-.83404-5.93347-4.91589-10.40093-5.10882-10.60833-.37891-.40723-1.08594-.40723-1.46484 0-.19293.2074-4.27478 4.67487-5.10883 10.60834-4.78864-3.61548-10.84064-3.88678-11.1236-3.89691-.27832-.01758-.54688.09619-.74219.29248-.19629.19629-.30176.46533-.29199.74268.00964.28101.27863 6.28192 3.88684 11.09894-5.91345.84723-10.36279 4.91199-10.56946 5.1037-.20312.18895-.31835.45409-.31835.73192 0 .27734.11523.54248.31836.73193.23071.21417 5.70465 5.2337 12.61725 5.2652-.76099.84418-1.38617 1.82135-1.78522 2.93011zm4.33008 19h-8.36621c-1.7998 0-3.26367-1.46387-3.26367-3.26367 0-.93701.38379-1.79883 1.08008-2.42578.60742-.54736 1.36914-.83887 2.17188-.83887.11719 0 .23535.00586.35352.01855l30.93457 3.25635c.83202.0874 1.45995.78516 1.45995 1.62207 0 .89942-.73145 1.63135-1.63086 1.63135zm30.78418-6.50781c.11621-.01465.22559-.0127.33594-.01221 1.79199 0 3.25 1.4624 3.25 3.26025 0 1.79737-1.46191 3.25977-3.25977 3.25977h-5.14514c.25037-.4928.40491-1.04181.40491-1.63135 0-1.86328-1.39746-3.41602-3.25098-3.61133l-2.17773-.22925zm-5.35351-11.14942c.14355.39453.51953.65723.93945.65723h8.875c-.17578.68555-.53027 1.31543-1.03809 1.8291-.76367.75488-1.77148 1.1709-2.83691 1.1709h-8.35059l-3.73535-8.40625c-.19238-.43115-.65137-.67285-1.12207-.57178-.46191.09766-.79199.50586-.79199.97803v12c0 .26514.10547.51953.29297.70703l1.94952 1.94983-8.22534.86548-8.2561-.86908 1.94598-1.94623c.1875-.1875.29297-.44189.29297-.70703v-12c0-.47217-.33008-.88037-.79199-.97803-.46875-.10107-.93066.14062-1.12207.57178l-3.73535 8.40625h-8.35059c-1.06543 0-2.07324-.41602-2.8291-1.16309-.51367-.51904-.87012-1.15087-1.0459-1.83691h8.875c.41992 0 .7959-.2627.93945-.65723l2.0918-5.73438c.99121-2.75634 3.63086-4.60839 6.56836-4.60839h10.80078c2.9375 0 5.57715 1.85205 6.57031 4.61279zm-16.45124-12.34277c1.04401-.64453 1.86169-1.25842 2.39069-1.6861.52899.42767 1.34668 1.04156 2.39069 1.6861zm14.39069 1c-3.92328 0-7.42456-1.90845-9.46088-3.30182 2.59283-.46576 6.71271-1.66187 9.93005-4.68225 4.4375.1709 8.28436 2.7002 9.95856 3.98407-1.73144 1.3291-5.79003 4-10.42773 4zm-.65723-9.65723c-2.79077 2.79138-6.64166 3.91364-9.06372 4.36279 1.50861-2.16821 3.5766-5.92285 3.7027-10.29388 3.26642-3.05585 7.80786-3.9942 9.9079-4.27057-.28223 2.15235-1.25781 6.87744-4.54688 10.20166zm-11.34179-16.77197c1.3291 1.72754 3.99902 5.77686 3.99902 10.4292 0 4.6377-2.67285 8.69775-4.00098 10.4292-1.3291-1.72754-3.99902-5.77686-3.99902-10.4292 0-4.6377 2.67285-8.69775 4.00098-10.4292zm-5.98273 10.84082c.12616 4.37225 2.19531 8.12793 3.70398 10.29584-2.42218-.44946-6.28052-1.57928-9.1109-4.41058-3.24414-3.27881-4.2168-8.00439-4.5-10.15771 2.09735.27306 6.63104 1.20641 9.90692 4.27245zm-6.49182 7.60449c3.19025 3.02393 7.32849 4.21857 9.93237 4.68347-2.03668 1.39325-5.53692 3.30042-9.4588 3.30042-4.6377 0-8.69629-2.6709-10.42773-4 1.67358-1.28345 5.51855-3.81146 9.95416-3.98389z"/><path d="m31 34h2v2h-2z"/><path d="m31 38h2v2h-2z"/><path d="m31 42h2v2h-2z"/></svg>